<svg xmlns="http://www.w3.org/2000/svg"  viewBox="0 0 48 48" width="48px" height="48px"><linearGradient id="atmafua87GAY-Q3DVUuwga" x1="6" x2="42" y1="24" y2="24" gradientUnits="userSpaceOnUse"><stop offset="0" stop-color="#0d61a9"/><stop offset="1" stop-color="#16528c"/></linearGradient><path fill="url(#atmafua87GAY-Q3DVUuwga)" d="M40,6H8C6.895,6,6,6.895,6,8v32c0,1.105,0.895,2,2,2h32c1.105,0,2-0.895,2-2V8 C42,6.895,41.105,6,40,6z"/><path d="M38.819,30.606c-0.814-1.065-1.899-1.683-2.951-2.191c-0.319-0.154-0.639-0.305-0.959-0.456	c-0.665-0.313-1.353-0.637-2.002-0.983c-0.485-0.259-0.382-0.509-0.327-0.644c0.052-0.127,0.264-0.216,0.516-0.216	c0.075,0,0.152,0.008,0.228,0.022c0.284,0.053,0.816,0.507,1.094,0.933l0.272,0.416l0.271,0.416l0.418-0.269l0.418-0.269	c0.082-0.053,2.025-1.302,2.759-1.834l0.304-0.22l0.304-0.22l-0.126-0.353l-0.126-0.353c-0.049-0.138-1.264-3.38-6.221-3.38h-0.006	c-1.611,0.042-2.972,0.603-4.066,1.669c-0.23,0.225-0.434,0.476-0.617,0.745V22v-0.5V21h-0.5H27H14h-0.5H13v0.5V22v3.034v0.5v0.5	h0.5H14h3.972v12.938v0.5v0.5h0.5h0.5h2.993h0.498h0.498l0.002-0.498l0.002-0.498l0.049-12.942H27h0.074	c-0.023,0.238-0.038,0.479-0.033,0.723c0.031,1.573,0.664,3.029,1.737,3.994c0.726,0.653,1.565,1.114,2.377,1.56l0.214,0.118	c0.541,0.299,1.096,0.561,1.632,0.815c0.426,0.202,0.841,0.398,1.247,0.611c0.151,0.079,0.211,0.183,0.205,0.358	c-0.007,0.236-0.099,0.365-0.326,0.461c-0.348,0.147-0.687,0.221-1.009,0.221c-0.484,0-0.954-0.171-1.399-0.509	c-0.238-0.181-0.471-0.455-0.719-0.746c-0.141-0.165-0.284-0.332-0.436-0.497l-0.273-0.294l-0.273-0.294l-0.346,0.202l-0.346,0.202	c-0.869,0.507-2.844,1.696-2.844,1.696l-0.422,0.254l-0.422,0.254l0.248,0.426l0.248,0.426c0.713,1.223,1.711,2.287,2.671,2.848	c1.331,0.778,2.785,1.172,4.322,1.172c0.837,0,1.715-0.118,2.61-0.35c1.932-0.501,3.332-1.751,3.942-3.52	C40.321,34.311,39.983,32.128,38.819,30.606z" opacity=".05"/><path d="M32.69,21.505h-0.006l-0.007,0c-1.461,0.038-2.709,0.552-3.71,1.527c-0.934,0.911-1.454,2.264-1.425,3.715 c0.029,1.436,0.601,2.76,1.571,3.633c0.683,0.614,1.497,1.062,2.284,1.494l0.214,0.118c0.528,0.291,1.075,0.551,1.605,0.802 c0.425,0.201,0.85,0.402,1.265,0.62c0.321,0.168,0.485,0.451,0.473,0.817c-0.014,0.43-0.226,0.735-0.631,0.906 c-0.41,0.173-0.814,0.26-1.203,0.26c-0.595,0-1.168-0.206-1.702-0.611c-0.281-0.213-0.532-0.508-0.797-0.82 c-0.136-0.159-0.274-0.322-0.422-0.481l-0.273-0.294l-0.346,0.202c-0.867,0.506-2.838,1.693-2.838,1.693l-0.422,0.254l0.248,0.426 c0.671,1.152,1.602,2.149,2.491,2.668c1.254,0.732,2.623,1.104,4.07,1.104c0.795,0,1.63-0.112,2.484-0.334 c1.764-0.458,3.041-1.594,3.595-3.199c0.587-1.702,0.279-3.701-0.786-5.094c-0.75-0.982-1.775-1.563-2.771-2.045 c-0.317-0.153-0.636-0.304-0.955-0.454c-0.671-0.316-1.365-0.643-2.025-0.995c-0.57-0.304-0.767-0.756-0.555-1.274 c0.133-0.325,0.508-0.527,0.979-0.527c0.105,0,0.213,0.01,0.321,0.031c0.471,0.088,1.104,0.667,1.42,1.152l0.271,0.416 l0.418-0.269c0.082-0.053,2.019-1.299,2.737-1.818l0.304-0.22l-0.126-0.353C38.396,24.429,37.299,21.505,32.69,21.505 L32.69,21.505z" opacity=".05"/><path d="M27.5,21.5H27H14h-0.5V22v3.034v0.5H14h4.472v13.438v0.5h0.5h2.993h0.498l0.002-0.498l0.051-13.44H27h0.5v-0.5V22V21.5 L27.5,21.5z" opacity=".05"/><path fill="#fff" d="M29.832,33.824c0.45,0.485,0.809,0.998,1.284,1.359c1.031,0.784,2.197,0.921,3.401,0.413 c0.579-0.244,0.917-0.716,0.937-1.35c0.018-0.56-0.252-1.019-0.741-1.276c-0.942-0.494-1.93-0.903-2.861-1.417 c-0.834-0.46-1.705-0.916-2.405-1.546c-1.855-1.67-1.851-4.942-0.132-6.617c0.935-0.911,2.064-1.351,3.374-1.385 c4.31,0,5.279,2.716,5.279,2.716c-0.715,0.517-2.714,1.803-2.714,1.803c-0.358-0.549-1.09-1.246-1.747-1.37 c-0.826-0.155-1.593,0.159-1.855,0.798c-0.302,0.737-0.04,1.466,0.782,1.905c0.979,0.522,1.997,0.973,2.997,1.457 c0.98,0.474,1.918,1.018,2.592,1.899c1.704,2.229,1.365,6.494-2.537,7.506c-2.133,0.553-4.218,0.427-6.177-0.718 c-0.923-0.539-1.783-1.581-2.311-2.488C27,35.513,28.967,34.329,29.832,33.824z"/><polygon fill="#fff" points="14,22 14,25.034 18.972,25.034 18.972,38.972 21.965,38.972 22.018,25.034 27,25.034 27,22"/></svg>